<svg width="21" height="26" viewBox="0 0 21 26" fill="none" xmlns="http://www.w3.org/2000/svg">
<path d="M12.0017 1.51413C11.6033 1.1279 11.0632 0.91095 10.5001 0.91095C9.93694 0.91095 9.39684 1.1279 8.9984 1.51413L0.981484 9.29113C0.582842 9.67805 0.358887 10.2028 0.358887 10.75C0.358887 11.2972 0.582842 11.822 0.981484 12.2089C1.38013 12.5958 1.9208 12.8132 2.48457 12.8132C3.04833 12.8132 3.58901 12.5958 3.98765 12.2089L8.37507 7.95189V23.8125C8.37507 24.3595 8.59895 24.8841 8.99747 25.2709C9.39598 25.6577 9.93648 25.875 10.5001 25.875C11.0637 25.875 11.6042 25.6577 12.0027 25.2709C12.4012 24.8841 12.6251 24.3595 12.6251 23.8125V7.95189L17.0111 12.2089C17.2085 12.4005 17.4428 12.5524 17.7007 12.6561C17.9586 12.7598 18.235 12.8132 18.5142 12.8132C18.7933 12.8132 19.0697 12.7598 19.3276 12.6561C19.5855 12.5524 19.8198 12.4005 20.0172 12.2089C20.2146 12.0173 20.3712 11.7899 20.478 11.5395C20.5848 11.2892 20.6398 11.0209 20.6398 10.75C20.6398 10.4791 20.5848 10.2108 20.478 9.96047C20.3712 9.71016 20.2146 9.48272 20.0172 9.29113L12.0017 1.51413Z" fill="black"/>
</svg>
