<svg width="34" height="34" viewBox="0 0 34 34" fill="none" xmlns="http://www.w3.org/2000/svg">
<path d="M17.0002 16.133C15.7167 13.6382 12.2232 8.98729 8.97475 6.69512C5.86233 4.49929 4.67658 4.87754 3.89883 5.23171C2.99783 5.63546 2.8335 7.01954 2.8335 7.83129C2.8335 8.64587 3.27975 14.5024 3.57016 15.4813C4.5335 18.7113 7.95333 19.8021 11.1068 19.4522C6.4885 20.1365 2.38441 21.818 7.7635 27.8077C13.6823 33.9348 15.8753 26.4944 17.0002 22.7219C18.125 26.4944 19.4198 33.667 26.1292 27.8077C31.1668 22.7219 27.5133 20.1365 22.8949 19.4522C26.047 19.8021 29.4683 18.7113 30.4302 15.4813C30.7206 14.5038 31.1668 8.64587 31.1668 7.83271C31.1668 7.01812 31.0025 5.63688 30.1015 5.22888C29.3238 4.87754 28.138 4.49646 25.0256 6.69229C21.7772 8.98871 18.2822 13.6396 17.0002 16.133Z" fill="white"/>
</svg>
