<svg width="34" height="34" viewBox="0 0 34 34" fill="none" xmlns="http://www.w3.org/2000/svg">
<g clip-path="url(#clip0_61_494)">
<rect width="34" height="34" fill="black" fill-opacity="0.05"/>
<path d="M24.5338 0.109083C26.2593 0.188417 27.4522 0.442 28.5543 0.869833C29.5994 1.26056 30.5455 1.87679 31.3253 2.67467C32.1232 3.45452 32.7394 4.40062 33.1302 5.44567C33.558 6.54925 33.8116 7.74067 33.8909 9.46617C33.9887 11.6053 34 12.359 34 17C34 21.641 33.9887 22.3947 33.8909 24.5338C33.8116 26.2593 33.558 27.4522 33.1302 28.5557C32.7393 29.6003 32.123 30.5459 31.3253 31.3253C30.5455 32.1232 29.5994 32.7395 28.5543 33.1302C27.4508 33.558 26.2593 33.8116 24.5338 33.8909C22.3947 33.9887 21.6424 34 17 34C12.3576 34 11.6039 33.9887 9.46617 33.8909C7.74067 33.8116 6.54783 33.558 5.44425 33.1302C4.39969 32.7393 3.45408 32.1231 2.67467 31.3253C1.87679 30.5455 1.26056 29.5994 0.869833 28.5543C0.442 27.4508 0.188417 26.2593 0.109083 24.5338C0.0113333 22.3975 0 21.6438 0 17C0 12.3576 0.0113333 11.6025 0.109083 9.46617C0.188417 7.74067 0.442 6.54783 0.869833 5.44567C1.26056 4.40062 1.87679 3.45452 2.67467 2.67467C3.45411 1.87696 4.39971 1.26075 5.44425 0.869833C6.54925 0.442 7.74067 0.188417 9.46617 0.109083C11.6025 0.0113333 12.3562 0 17 0C21.6424 0 22.3975 0.0113333 24.5338 0.109083ZM17 3.77825C12.41 3.77825 11.7073 3.78817 9.63758 3.88308C8.32433 3.94258 7.53667 4.10975 6.81275 4.39167C6.2571 4.59315 5.75503 4.9193 5.34508 5.34508C4.9184 5.75428 4.5921 6.25658 4.39167 6.81275C4.11117 7.53525 3.94258 8.32433 3.88308 9.63758C3.78817 11.7073 3.77825 12.41 3.77825 17C3.77825 21.59 3.78817 22.2927 3.88308 24.3624C3.94258 25.6757 4.10975 26.4633 4.39167 27.1858C4.6325 27.8035 4.8875 28.1959 5.34508 28.6549C5.80408 29.1139 6.1965 29.3689 6.81275 29.6083C7.53525 29.8888 8.32433 30.0574 9.63758 30.1169C11.7087 30.2118 12.4114 30.2218 17 30.2218C21.59 30.2218 22.2913 30.2118 24.3624 30.1169C25.6757 30.0574 26.4633 29.8902 27.1873 29.6083C27.7429 29.4068 28.245 29.0807 28.6549 28.6549C29.1139 28.1959 29.3689 27.8035 29.6083 27.1873C29.8888 26.4647 30.0574 25.6757 30.1169 24.3624C30.2118 22.2913 30.2218 21.5886 30.2218 17C30.2218 12.4114 30.2118 11.7087 30.1169 9.63758C30.0574 8.32433 29.8902 7.53667 29.6083 6.81417C29.408 6.25753 29.0817 5.75475 28.6549 5.34508C28.2453 4.91826 27.7425 4.59195 27.1858 4.39167C26.4633 4.11117 25.6742 3.94258 24.361 3.88308C22.2912 3.78817 21.5886 3.77825 16.9986 3.77825M16.9986 25.8145C14.6608 25.8145 12.4188 24.8858 10.7658 23.2328C9.11275 21.5798 8.18408 19.3377 8.18408 17C8.18408 14.6622 9.11275 12.4202 10.7658 10.7672C12.4188 9.11417 14.6608 8.1855 16.9986 8.1855C19.3363 8.1855 21.5783 9.11417 23.2314 10.7672C24.8844 12.4202 25.8131 14.6622 25.8131 17C25.8131 19.3377 24.8844 21.5798 23.2314 23.2328C21.5783 24.8858 19.3363 25.8145 16.9986 25.8145ZM16.9986 22.0377C18.3347 22.0377 19.616 21.5069 20.5608 20.5622C21.5055 19.6174 22.0362 18.3361 22.0362 17C22.0362 15.6639 21.5055 14.3826 20.5608 13.4378C19.616 12.4931 18.3347 11.9623 16.9986 11.9623C15.6625 11.9623 14.3812 12.4931 13.4364 13.4378C12.4917 14.3826 11.9609 15.6639 11.9609 17C11.9609 18.3361 12.4917 19.6174 13.4364 20.5622C14.3812 21.5069 15.6625 22.0377 16.9986 22.0377ZM25.8131 10.0739C25.3121 10.0739 24.8315 9.87488 24.4773 9.52061C24.123 9.16632 23.924 8.68582 23.924 8.18479C23.924 7.68376 24.123 7.20326 24.4773 6.84898C24.8315 6.4947 25.3121 6.29567 25.8131 6.29567C26.3141 6.29567 26.7946 6.4947 27.1489 6.84898C27.5032 7.20326 27.7022 7.68376 27.7022 8.18479C27.7022 8.68582 27.5032 9.16632 27.1489 9.52061C26.7946 9.87488 26.3141 10.0739 25.8131 10.0739Z" fill="white"/>
</g>
<defs>
<clipPath id="clip0_61_494">
<rect width="34" height="34" fill="white"/>
</clipPath>
</defs>
</svg>
